G04 #@! TF.GenerationSoftware,KiCad,Pcbnew,(5.0.0)*
G04 #@! TF.CreationDate,2019-01-04T11:12:30-05:00*
G04 #@! TF.ProjectId,Sistema_Adquisicion_Tesis,53697374656D615F4164717569736963,rev?*
G04 #@! TF.SameCoordinates,Original*
G04 #@! TF.FileFunction,Legend,Bot*
G04 #@! TF.FilePolarity,Positive*
%FSLAX46Y46*%
G04 Gerber Fmt 4.6, Leading zero omitted, Abs format (unit mm)*
G04 Created by KiCad (PCBNEW (5.0.0)) date 01/04/19 11:12:30*
%MOMM*%
%LPD*%
G01*
G04 APERTURE LIST*
%ADD10C,0.300000*%
G04 APERTURE END LIST*
D10*
X154883571Y-149673571D02*
X154383571Y-151173571D01*
X153883571Y-149673571D01*
X153383571Y-150387857D02*
X152883571Y-150387857D01*
X152669285Y-151173571D02*
X153383571Y-151173571D01*
X153383571Y-149673571D01*
X152669285Y-149673571D01*
X151169285Y-151173571D02*
X151669285Y-150459285D01*
X152026428Y-151173571D02*
X152026428Y-149673571D01*
X151455000Y-149673571D01*
X151312142Y-149745000D01*
X151240714Y-149816428D01*
X151169285Y-149959285D01*
X151169285Y-150173571D01*
X151240714Y-150316428D01*
X151312142Y-150387857D01*
X151455000Y-150459285D01*
X152026428Y-150459285D01*
X150597857Y-151102142D02*
X150383571Y-151173571D01*
X150026428Y-151173571D01*
X149883571Y-151102142D01*
X149812142Y-151030714D01*
X149740714Y-150887857D01*
X149740714Y-150745000D01*
X149812142Y-150602142D01*
X149883571Y-150530714D01*
X150026428Y-150459285D01*
X150312142Y-150387857D01*
X150455000Y-150316428D01*
X150526428Y-150245000D01*
X150597857Y-150102142D01*
X150597857Y-149959285D01*
X150526428Y-149816428D01*
X150455000Y-149745000D01*
X150312142Y-149673571D01*
X149955000Y-149673571D01*
X149740714Y-149745000D01*
X149097857Y-151173571D02*
X149097857Y-149673571D01*
X148097857Y-149673571D02*
X147812142Y-149673571D01*
X147669285Y-149745000D01*
X147526428Y-149887857D01*
X147455000Y-150173571D01*
X147455000Y-150673571D01*
X147526428Y-150959285D01*
X147669285Y-151102142D01*
X147812142Y-151173571D01*
X148097857Y-151173571D01*
X148240714Y-151102142D01*
X148383571Y-150959285D01*
X148455000Y-150673571D01*
X148455000Y-150173571D01*
X148383571Y-149887857D01*
X148240714Y-149745000D01*
X148097857Y-149673571D01*
X146812142Y-151173571D02*
X146812142Y-149673571D01*
X145955000Y-151173571D01*
X145955000Y-149673571D01*
X143312142Y-151173571D02*
X144169285Y-151173571D01*
X143740714Y-151173571D02*
X143740714Y-149673571D01*
X143883571Y-149887857D01*
X144026428Y-150030714D01*
X144169285Y-150102142D01*
X142669285Y-151030714D02*
X142597857Y-151102142D01*
X142669285Y-151173571D01*
X142740714Y-151102142D01*
X142669285Y-151030714D01*
X142669285Y-151173571D01*
X141669285Y-149673571D02*
X141526428Y-149673571D01*
X141383571Y-149745000D01*
X141312142Y-149816428D01*
X141240714Y-149959285D01*
X141169285Y-150245000D01*
X141169285Y-150602142D01*
X141240714Y-150887857D01*
X141312142Y-151030714D01*
X141383571Y-151102142D01*
X141526428Y-151173571D01*
X141669285Y-151173571D01*
X141812142Y-151102142D01*
X141883571Y-151030714D01*
X141955000Y-150887857D01*
X142026428Y-150602142D01*
X142026428Y-150245000D01*
X141955000Y-149959285D01*
X141883571Y-149816428D01*
X141812142Y-149745000D01*
X141669285Y-149673571D01*
X138748571Y-139042857D02*
X138748571Y-140014285D01*
X138691428Y-140128571D01*
X138634285Y-140185714D01*
X138520000Y-140242857D01*
X138291428Y-140242857D01*
X138177142Y-140185714D01*
X138120000Y-140128571D01*
X138062857Y-140014285D01*
X138062857Y-139042857D01*
X137491428Y-140242857D02*
X137491428Y-139042857D01*
X136805714Y-140242857D01*
X136805714Y-139042857D01*
X136234285Y-140242857D02*
X136234285Y-139042857D01*
X135834285Y-139042857D02*
X135434285Y-140242857D01*
X135034285Y-139042857D01*
X134634285Y-139614285D02*
X134234285Y-139614285D01*
X134062857Y-140242857D02*
X134634285Y-140242857D01*
X134634285Y-139042857D01*
X134062857Y-139042857D01*
X132862857Y-140242857D02*
X133262857Y-139671428D01*
X133548571Y-140242857D02*
X133548571Y-139042857D01*
X133091428Y-139042857D01*
X132977142Y-139100000D01*
X132920000Y-139157142D01*
X132862857Y-139271428D01*
X132862857Y-139442857D01*
X132920000Y-139557142D01*
X132977142Y-139614285D01*
X133091428Y-139671428D01*
X133548571Y-139671428D01*
X132405714Y-140185714D02*
X132234285Y-140242857D01*
X131948571Y-140242857D01*
X131834285Y-140185714D01*
X131777142Y-140128571D01*
X131720000Y-140014285D01*
X131720000Y-139900000D01*
X131777142Y-139785714D01*
X131834285Y-139728571D01*
X131948571Y-139671428D01*
X132177142Y-139614285D01*
X132291428Y-139557142D01*
X132348571Y-139500000D01*
X132405714Y-139385714D01*
X132405714Y-139271428D01*
X132348571Y-139157142D01*
X132291428Y-139100000D01*
X132177142Y-139042857D01*
X131891428Y-139042857D01*
X131720000Y-139100000D01*
X131205714Y-140242857D02*
X131205714Y-139042857D01*
X130634285Y-140242857D02*
X130634285Y-139042857D01*
X130348571Y-139042857D01*
X130177142Y-139100000D01*
X130062857Y-139214285D01*
X130005714Y-139328571D01*
X129948571Y-139557142D01*
X129948571Y-139728571D01*
X130005714Y-139957142D01*
X130062857Y-140071428D01*
X130177142Y-140185714D01*
X130348571Y-140242857D01*
X130634285Y-140242857D01*
X129491428Y-139900000D02*
X128920000Y-139900000D01*
X129605714Y-140242857D02*
X129205714Y-139042857D01*
X128805714Y-140242857D01*
X128405714Y-140242857D02*
X128405714Y-139042857D01*
X128120000Y-139042857D01*
X127948571Y-139100000D01*
X127834285Y-139214285D01*
X127777142Y-139328571D01*
X127720000Y-139557142D01*
X127720000Y-139728571D01*
X127777142Y-139957142D01*
X127834285Y-140071428D01*
X127948571Y-140185714D01*
X128120000Y-140242857D01*
X128405714Y-140242857D01*
X126462857Y-139042857D02*
X125777142Y-139042857D01*
X126120000Y-140242857D02*
X126120000Y-139042857D01*
X125377142Y-139614285D02*
X124977142Y-139614285D01*
X124805714Y-140242857D02*
X125377142Y-140242857D01*
X125377142Y-139042857D01*
X124805714Y-139042857D01*
X123605714Y-140128571D02*
X123662857Y-140185714D01*
X123834285Y-140242857D01*
X123948571Y-140242857D01*
X124120000Y-140185714D01*
X124234285Y-140071428D01*
X124291428Y-139957142D01*
X124348571Y-139728571D01*
X124348571Y-139557142D01*
X124291428Y-139328571D01*
X124234285Y-139214285D01*
X124120000Y-139100000D01*
X123948571Y-139042857D01*
X123834285Y-139042857D01*
X123662857Y-139100000D01*
X123605714Y-139157142D01*
X123091428Y-140242857D02*
X123091428Y-139042857D01*
X122405714Y-140242857D01*
X122405714Y-139042857D01*
X121605714Y-139042857D02*
X121377142Y-139042857D01*
X121262857Y-139100000D01*
X121148571Y-139214285D01*
X121091428Y-139442857D01*
X121091428Y-139842857D01*
X121148571Y-140071428D01*
X121262857Y-140185714D01*
X121377142Y-140242857D01*
X121605714Y-140242857D01*
X121720000Y-140185714D01*
X121834285Y-140071428D01*
X121891428Y-139842857D01*
X121891428Y-139442857D01*
X121834285Y-139214285D01*
X121720000Y-139100000D01*
X121605714Y-139042857D01*
X120005714Y-140242857D02*
X120577142Y-140242857D01*
X120577142Y-139042857D01*
X119377142Y-139042857D02*
X119148571Y-139042857D01*
X119034285Y-139100000D01*
X118920000Y-139214285D01*
X118862857Y-139442857D01*
X118862857Y-139842857D01*
X118920000Y-140071428D01*
X119034285Y-140185714D01*
X119148571Y-140242857D01*
X119377142Y-140242857D01*
X119491428Y-140185714D01*
X119605714Y-140071428D01*
X119662857Y-139842857D01*
X119662857Y-139442857D01*
X119605714Y-139214285D01*
X119491428Y-139100000D01*
X119377142Y-139042857D01*
X119148571Y-138585714D02*
X119320000Y-138757142D01*
X117720000Y-139100000D02*
X117834285Y-139042857D01*
X118005714Y-139042857D01*
X118177142Y-139100000D01*
X118291428Y-139214285D01*
X118348571Y-139328571D01*
X118405714Y-139557142D01*
X118405714Y-139728571D01*
X118348571Y-139957142D01*
X118291428Y-140071428D01*
X118177142Y-140185714D01*
X118005714Y-140242857D01*
X117891428Y-140242857D01*
X117720000Y-140185714D01*
X117662857Y-140128571D01*
X117662857Y-139728571D01*
X117891428Y-139728571D01*
X117148571Y-140242857D02*
X117148571Y-139042857D01*
X115891428Y-140128571D02*
X115948571Y-140185714D01*
X116120000Y-140242857D01*
X116234285Y-140242857D01*
X116405714Y-140185714D01*
X116520000Y-140071428D01*
X116577142Y-139957142D01*
X116634285Y-139728571D01*
X116634285Y-139557142D01*
X116577142Y-139328571D01*
X116520000Y-139214285D01*
X116405714Y-139100000D01*
X116234285Y-139042857D01*
X116120000Y-139042857D01*
X115948571Y-139100000D01*
X115891428Y-139157142D01*
X115434285Y-139900000D02*
X114862857Y-139900000D01*
X115548571Y-140242857D02*
X115148571Y-139042857D01*
X114748571Y-140242857D01*
X113434285Y-140242857D02*
X113434285Y-139042857D01*
X113148571Y-139042857D01*
X112977142Y-139100000D01*
X112862857Y-139214285D01*
X112805714Y-139328571D01*
X112748571Y-139557142D01*
X112748571Y-139728571D01*
X112805714Y-139957142D01*
X112862857Y-140071428D01*
X112977142Y-140185714D01*
X113148571Y-140242857D01*
X113434285Y-140242857D01*
X112234285Y-139614285D02*
X111834285Y-139614285D01*
X111662857Y-140242857D02*
X112234285Y-140242857D01*
X112234285Y-139042857D01*
X111662857Y-139042857D01*
X110577142Y-140242857D02*
X111148571Y-140242857D01*
X111148571Y-139042857D01*
X109262857Y-140242857D02*
X109262857Y-139042857D01*
X108805714Y-139042857D01*
X108691428Y-139100000D01*
X108634285Y-139157142D01*
X108577142Y-139271428D01*
X108577142Y-139442857D01*
X108634285Y-139557142D01*
X108691428Y-139614285D01*
X108805714Y-139671428D01*
X109262857Y-139671428D01*
X108062857Y-139614285D02*
X107662857Y-139614285D01*
X107491428Y-140242857D02*
X108062857Y-140242857D01*
X108062857Y-139042857D01*
X107491428Y-139042857D01*
X106291428Y-140242857D02*
X106691428Y-139671428D01*
X106977142Y-140242857D02*
X106977142Y-139042857D01*
X106520000Y-139042857D01*
X106405714Y-139100000D01*
X106348571Y-139157142D01*
X106291428Y-139271428D01*
X106291428Y-139442857D01*
X106348571Y-139557142D01*
X106405714Y-139614285D01*
X106520000Y-139671428D01*
X106977142Y-139671428D01*
X105777142Y-139042857D02*
X105777142Y-140014285D01*
X105720000Y-140128571D01*
X105662857Y-140185714D01*
X105548571Y-140242857D01*
X105320000Y-140242857D01*
X105205714Y-140185714D01*
X105148571Y-140128571D01*
X105091428Y-140014285D01*
X105091428Y-139042857D01*
X105320000Y-138585714D02*
X105491428Y-138757142D01*
X73345714Y-137203571D02*
X73345714Y-135703571D01*
X72774285Y-135703571D01*
X72631428Y-135775000D01*
X72560000Y-135846428D01*
X72488571Y-135989285D01*
X72488571Y-136203571D01*
X72560000Y-136346428D01*
X72631428Y-136417857D01*
X72774285Y-136489285D01*
X73345714Y-136489285D01*
X71845714Y-136417857D02*
X71345714Y-136417857D01*
X71131428Y-137203571D02*
X71845714Y-137203571D01*
X71845714Y-135703571D01*
X71131428Y-135703571D01*
X69631428Y-137203571D02*
X70131428Y-136489285D01*
X70488571Y-137203571D02*
X70488571Y-135703571D01*
X69917142Y-135703571D01*
X69774285Y-135775000D01*
X69702857Y-135846428D01*
X69631428Y-135989285D01*
X69631428Y-136203571D01*
X69702857Y-136346428D01*
X69774285Y-136417857D01*
X69917142Y-136489285D01*
X70488571Y-136489285D01*
X68988571Y-135703571D02*
X68988571Y-136917857D01*
X68917142Y-137060714D01*
X68845714Y-137132142D01*
X68702857Y-137203571D01*
X68417142Y-137203571D01*
X68274285Y-137132142D01*
X68202857Y-137060714D01*
X68131428Y-136917857D01*
X68131428Y-135703571D01*
X66345714Y-135846428D02*
X66274285Y-135775000D01*
X66131428Y-135703571D01*
X65774285Y-135703571D01*
X65631428Y-135775000D01*
X65560000Y-135846428D01*
X65488571Y-135989285D01*
X65488571Y-136132142D01*
X65560000Y-136346428D01*
X66417142Y-137203571D01*
X65488571Y-137203571D01*
X64560000Y-135703571D02*
X64417142Y-135703571D01*
X64274285Y-135775000D01*
X64202857Y-135846428D01*
X64131428Y-135989285D01*
X64060000Y-136275000D01*
X64060000Y-136632142D01*
X64131428Y-136917857D01*
X64202857Y-137060714D01*
X64274285Y-137132142D01*
X64417142Y-137203571D01*
X64560000Y-137203571D01*
X64702857Y-137132142D01*
X64774285Y-137060714D01*
X64845714Y-136917857D01*
X64917142Y-136632142D01*
X64917142Y-136275000D01*
X64845714Y-135989285D01*
X64774285Y-135846428D01*
X64702857Y-135775000D01*
X64560000Y-135703571D01*
X62631428Y-137203571D02*
X63488571Y-137203571D01*
X63060000Y-137203571D02*
X63060000Y-135703571D01*
X63202857Y-135917857D01*
X63345714Y-136060714D01*
X63488571Y-136132142D01*
X61917142Y-137203571D02*
X61631428Y-137203571D01*
X61488571Y-137132142D01*
X61417142Y-137060714D01*
X61274285Y-136846428D01*
X61202857Y-136560714D01*
X61202857Y-135989285D01*
X61274285Y-135846428D01*
X61345714Y-135775000D01*
X61488571Y-135703571D01*
X61774285Y-135703571D01*
X61917142Y-135775000D01*
X61988571Y-135846428D01*
X62060000Y-135989285D01*
X62060000Y-136346428D01*
X61988571Y-136489285D01*
X61917142Y-136560714D01*
X61774285Y-136632142D01*
X61488571Y-136632142D01*
X61345714Y-136560714D01*
X61274285Y-136489285D01*
X61202857Y-136346428D01*
X139148571Y-137995000D02*
X138577142Y-137995000D01*
X139262857Y-138337857D02*
X138862857Y-137137857D01*
X138462857Y-138337857D01*
X138062857Y-137137857D02*
X138062857Y-138109285D01*
X138005714Y-138223571D01*
X137948571Y-138280714D01*
X137834285Y-138337857D01*
X137605714Y-138337857D01*
X137491428Y-138280714D01*
X137434285Y-138223571D01*
X137377142Y-138109285D01*
X137377142Y-137137857D01*
X136977142Y-137137857D02*
X136291428Y-137137857D01*
X136634285Y-138337857D02*
X136634285Y-137137857D01*
X135662857Y-137137857D02*
X135434285Y-137137857D01*
X135320000Y-137195000D01*
X135205714Y-137309285D01*
X135148571Y-137537857D01*
X135148571Y-137937857D01*
X135205714Y-138166428D01*
X135320000Y-138280714D01*
X135434285Y-138337857D01*
X135662857Y-138337857D01*
X135777142Y-138280714D01*
X135891428Y-138166428D01*
X135948571Y-137937857D01*
X135948571Y-137537857D01*
X135891428Y-137309285D01*
X135777142Y-137195000D01*
X135662857Y-137137857D01*
X133948571Y-138337857D02*
X134348571Y-137766428D01*
X134634285Y-138337857D02*
X134634285Y-137137857D01*
X134177142Y-137137857D01*
X134062857Y-137195000D01*
X134005714Y-137252142D01*
X133948571Y-137366428D01*
X133948571Y-137537857D01*
X134005714Y-137652142D01*
X134062857Y-137709285D01*
X134177142Y-137766428D01*
X134634285Y-137766428D01*
X133434285Y-138223571D02*
X133377142Y-138280714D01*
X133434285Y-138337857D01*
X133491428Y-138280714D01*
X133434285Y-138223571D01*
X133434285Y-138337857D01*
X133434285Y-137595000D02*
X133377142Y-137652142D01*
X133434285Y-137709285D01*
X133491428Y-137652142D01*
X133434285Y-137595000D01*
X133434285Y-137709285D01*
X132062857Y-137137857D02*
X131777142Y-138337857D01*
X131548571Y-137480714D01*
X131320000Y-138337857D01*
X131034285Y-137137857D01*
X130577142Y-138337857D02*
X130577142Y-137137857D01*
X129434285Y-138337857D02*
X130005714Y-138337857D01*
X130005714Y-137137857D01*
X128462857Y-138337857D02*
X129034285Y-138337857D01*
X129034285Y-137137857D01*
X128062857Y-138337857D02*
X128062857Y-137137857D01*
X127548571Y-137995000D02*
X126977142Y-137995000D01*
X127662857Y-138337857D02*
X127262857Y-137137857D01*
X126862857Y-138337857D01*
X126462857Y-138337857D02*
X126462857Y-137137857D01*
X126062857Y-137995000D01*
X125662857Y-137137857D01*
X125662857Y-138337857D01*
X125034285Y-137137857D02*
X125148571Y-137366428D01*
X124577142Y-138280714D02*
X124405714Y-138337857D01*
X124120000Y-138337857D01*
X124005714Y-138280714D01*
X123948571Y-138223571D01*
X123891428Y-138109285D01*
X123891428Y-137995000D01*
X123948571Y-137880714D01*
X124005714Y-137823571D01*
X124120000Y-137766428D01*
X124348571Y-137709285D01*
X124462857Y-137652142D01*
X124520000Y-137595000D01*
X124577142Y-137480714D01*
X124577142Y-137366428D01*
X124520000Y-137252142D01*
X124462857Y-137195000D01*
X124348571Y-137137857D01*
X124062857Y-137137857D01*
X123891428Y-137195000D01*
X121891428Y-138337857D02*
X122462857Y-138337857D01*
X122462857Y-137137857D01*
X121491428Y-138337857D02*
X121491428Y-137137857D01*
X120920000Y-138337857D02*
X120920000Y-137137857D01*
X120520000Y-137995000D01*
X120120000Y-137137857D01*
X120120000Y-138337857D01*
X119320000Y-137137857D02*
X119091428Y-137137857D01*
X118977142Y-137195000D01*
X118862857Y-137309285D01*
X118805714Y-137537857D01*
X118805714Y-137937857D01*
X118862857Y-138166428D01*
X118977142Y-138280714D01*
X119091428Y-138337857D01*
X119320000Y-138337857D01*
X119434285Y-138280714D01*
X119548571Y-138166428D01*
X119605714Y-137937857D01*
X119605714Y-137537857D01*
X119548571Y-137309285D01*
X119434285Y-137195000D01*
X119320000Y-137137857D01*
X118291428Y-138337857D02*
X118291428Y-137137857D01*
X117605714Y-138337857D01*
X117605714Y-137137857D01*
X116348571Y-138223571D02*
X116405714Y-138280714D01*
X116577142Y-138337857D01*
X116691428Y-138337857D01*
X116862857Y-138280714D01*
X116977142Y-138166428D01*
X117034285Y-138052142D01*
X117091428Y-137823571D01*
X117091428Y-137652142D01*
X117034285Y-137423571D01*
X116977142Y-137309285D01*
X116862857Y-137195000D01*
X116691428Y-137137857D01*
X116577142Y-137137857D01*
X116405714Y-137195000D01*
X116348571Y-137252142D01*
X115834285Y-138337857D02*
X115834285Y-137137857D01*
X115834285Y-137709285D02*
X115148571Y-137709285D01*
X115148571Y-138337857D02*
X115148571Y-137137857D01*
X114577142Y-138337857D02*
X114577142Y-137137857D01*
X113148571Y-138280714D02*
X112977142Y-138337857D01*
X112691428Y-138337857D01*
X112577142Y-138280714D01*
X112520000Y-138223571D01*
X112462857Y-138109285D01*
X112462857Y-137995000D01*
X112520000Y-137880714D01*
X112577142Y-137823571D01*
X112691428Y-137766428D01*
X112920000Y-137709285D01*
X113034285Y-137652142D01*
X113091428Y-137595000D01*
X113148571Y-137480714D01*
X113148571Y-137366428D01*
X113091428Y-137252142D01*
X113034285Y-137195000D01*
X112920000Y-137137857D01*
X112634285Y-137137857D01*
X112462857Y-137195000D01*
X112005714Y-137995000D02*
X111434285Y-137995000D01*
X112120000Y-138337857D02*
X111720000Y-137137857D01*
X111320000Y-138337857D01*
X110920000Y-138337857D02*
X110920000Y-137137857D01*
X110234285Y-138337857D01*
X110234285Y-137137857D01*
X109662857Y-138337857D02*
X109662857Y-137137857D01*
X109377142Y-137137857D01*
X109205714Y-137195000D01*
X109091428Y-137309285D01*
X109034285Y-137423571D01*
X108977142Y-137652142D01*
X108977142Y-137823571D01*
X109034285Y-138052142D01*
X109091428Y-138166428D01*
X109205714Y-138280714D01*
X109377142Y-138337857D01*
X109662857Y-138337857D01*
X108234285Y-137137857D02*
X108005714Y-137137857D01*
X107891428Y-137195000D01*
X107777142Y-137309285D01*
X107720000Y-137537857D01*
X107720000Y-137937857D01*
X107777142Y-138166428D01*
X107891428Y-138280714D01*
X108005714Y-138337857D01*
X108234285Y-138337857D01*
X108348571Y-138280714D01*
X108462857Y-138166428D01*
X108520000Y-137937857D01*
X108520000Y-137537857D01*
X108462857Y-137309285D01*
X108348571Y-137195000D01*
X108234285Y-137137857D01*
X107377142Y-137137857D02*
X106977142Y-138337857D01*
X106577142Y-137137857D01*
X106234285Y-137995000D02*
X105662857Y-137995000D01*
X106348571Y-138337857D02*
X105948571Y-137137857D01*
X105548571Y-138337857D01*
X104577142Y-138337857D02*
X105148571Y-138337857D01*
X105148571Y-137137857D01*
X129421428Y-136432857D02*
X129421428Y-135232857D01*
X128964285Y-135232857D01*
X128850000Y-135290000D01*
X128792857Y-135347142D01*
X128735714Y-135461428D01*
X128735714Y-135632857D01*
X128792857Y-135747142D01*
X128850000Y-135804285D01*
X128964285Y-135861428D01*
X129421428Y-135861428D01*
X127535714Y-136432857D02*
X127935714Y-135861428D01*
X128221428Y-136432857D02*
X128221428Y-135232857D01*
X127764285Y-135232857D01*
X127650000Y-135290000D01*
X127592857Y-135347142D01*
X127535714Y-135461428D01*
X127535714Y-135632857D01*
X127592857Y-135747142D01*
X127650000Y-135804285D01*
X127764285Y-135861428D01*
X128221428Y-135861428D01*
X126792857Y-135232857D02*
X126564285Y-135232857D01*
X126450000Y-135290000D01*
X126335714Y-135404285D01*
X126278571Y-135632857D01*
X126278571Y-136032857D01*
X126335714Y-136261428D01*
X126450000Y-136375714D01*
X126564285Y-136432857D01*
X126792857Y-136432857D01*
X126907142Y-136375714D01*
X127021428Y-136261428D01*
X127078571Y-136032857D01*
X127078571Y-135632857D01*
X127021428Y-135404285D01*
X126907142Y-135290000D01*
X126792857Y-135232857D01*
X125535714Y-135861428D02*
X125535714Y-136432857D01*
X125935714Y-135232857D02*
X125535714Y-135861428D01*
X125135714Y-135232857D01*
X124735714Y-135804285D02*
X124335714Y-135804285D01*
X124164285Y-136432857D02*
X124735714Y-136432857D01*
X124735714Y-135232857D01*
X124164285Y-135232857D01*
X122964285Y-136318571D02*
X123021428Y-136375714D01*
X123192857Y-136432857D01*
X123307142Y-136432857D01*
X123478571Y-136375714D01*
X123592857Y-136261428D01*
X123650000Y-136147142D01*
X123707142Y-135918571D01*
X123707142Y-135747142D01*
X123650000Y-135518571D01*
X123592857Y-135404285D01*
X123478571Y-135290000D01*
X123307142Y-135232857D01*
X123192857Y-135232857D01*
X123021428Y-135290000D01*
X122964285Y-135347142D01*
X122621428Y-135232857D02*
X121935714Y-135232857D01*
X122278571Y-136432857D02*
X122278571Y-135232857D01*
X121307142Y-135232857D02*
X121078571Y-135232857D01*
X120964285Y-135290000D01*
X120850000Y-135404285D01*
X120792857Y-135632857D01*
X120792857Y-136032857D01*
X120850000Y-136261428D01*
X120964285Y-136375714D01*
X121078571Y-136432857D01*
X121307142Y-136432857D01*
X121421428Y-136375714D01*
X121535714Y-136261428D01*
X121592857Y-136032857D01*
X121592857Y-135632857D01*
X121535714Y-135404285D01*
X121421428Y-135290000D01*
X121307142Y-135232857D01*
X119364285Y-136432857D02*
X119364285Y-135232857D01*
X119078571Y-135232857D01*
X118907142Y-135290000D01*
X118792857Y-135404285D01*
X118735714Y-135518571D01*
X118678571Y-135747142D01*
X118678571Y-135918571D01*
X118735714Y-136147142D01*
X118792857Y-136261428D01*
X118907142Y-136375714D01*
X119078571Y-136432857D01*
X119364285Y-136432857D01*
X118164285Y-135804285D02*
X117764285Y-135804285D01*
X117592857Y-136432857D02*
X118164285Y-136432857D01*
X118164285Y-135232857D01*
X117592857Y-135232857D01*
X116335714Y-135232857D02*
X115650000Y-135232857D01*
X115992857Y-136432857D02*
X115992857Y-135232857D01*
X115250000Y-135804285D02*
X114850000Y-135804285D01*
X114678571Y-136432857D02*
X115250000Y-136432857D01*
X115250000Y-135232857D01*
X114678571Y-135232857D01*
X114221428Y-136375714D02*
X114050000Y-136432857D01*
X113764285Y-136432857D01*
X113650000Y-136375714D01*
X113592857Y-136318571D01*
X113535714Y-136204285D01*
X113535714Y-136090000D01*
X113592857Y-135975714D01*
X113650000Y-135918571D01*
X113764285Y-135861428D01*
X113992857Y-135804285D01*
X114107142Y-135747142D01*
X114164285Y-135690000D01*
X114221428Y-135575714D01*
X114221428Y-135461428D01*
X114164285Y-135347142D01*
X114107142Y-135290000D01*
X113992857Y-135232857D01*
X113707142Y-135232857D01*
X113535714Y-135290000D01*
X113021428Y-136432857D02*
X113021428Y-135232857D01*
X112507142Y-136375714D02*
X112335714Y-136432857D01*
X112050000Y-136432857D01*
X111935714Y-136375714D01*
X111878571Y-136318571D01*
X111821428Y-136204285D01*
X111821428Y-136090000D01*
X111878571Y-135975714D01*
X111935714Y-135918571D01*
X112050000Y-135861428D01*
X112278571Y-135804285D01*
X112392857Y-135747142D01*
X112450000Y-135690000D01*
X112507142Y-135575714D01*
X112507142Y-135461428D01*
X112450000Y-135347142D01*
X112392857Y-135290000D01*
X112278571Y-135232857D01*
X111992857Y-135232857D01*
X111821428Y-135290000D01*
M02*
