M48
;DRILL file {KiCad (5.0.0)} date 01/04/19 11:12:36
;FORMAT={3:3/ absolute / metric / keep zeros}
FMAT,2
METRIC,TZ
T1C0.400
T2C0.800
T3C0.900
T4C1.000
T5C1.020
T6C1.100
T7C1.300
T8C1.500
%
G90
G05
M71
T1
X094615Y-095885
X102870Y-090170
X107950Y-085090
X119380Y-080010
X121920Y-091440
T2
X104140Y-078740
X111760Y-078740
X086360Y-088900
X093980Y-088900
X121920Y-106680
X129540Y-106680
X091440Y-139700
X099060Y-139700
X091440Y-160020
X091440Y-167640
X093980Y-160020
X093980Y-167640
X096520Y-160020
X096520Y-167640
X099060Y-160020
X099060Y-167640
X091440Y-144780
X099060Y-144780
X091440Y-154940
X099060Y-154940
X147320Y-111760
X147320Y-119380
X133350Y-142240
X140970Y-142240
X111760Y-147320
X111760Y-154940
X062230Y-148590
X069850Y-148590
X116840Y-147320
X116840Y-154940
X119380Y-147320
X119380Y-154940
X121920Y-147320
X121920Y-154940
X124460Y-147320
X124460Y-154940
X062270Y-088900
X064770Y-088900
X099060Y-081280
X099060Y-088900
X077470Y-138430
X085090Y-138430
X128270Y-096520
X135890Y-096520
X120650Y-143510
X128270Y-143510
X062270Y-096520
X064770Y-096520
X118110Y-121960
X118110Y-124460
X062230Y-142240
X069850Y-142240
X134620Y-111760
X142240Y-111760
X134620Y-125730
X142240Y-125730
X121920Y-100330
X129540Y-100330
X147320Y-123190
X147320Y-130810
X123190Y-161290
X130810Y-161290
X138430Y-153670
X138430Y-161290
X140970Y-153670
X140970Y-161290
X143510Y-153670
X143510Y-161290
X146050Y-153670
X146050Y-161290
X151130Y-074970
X151130Y-077470
X073660Y-085090
X081280Y-085090
X139700Y-096520
X147320Y-096520
X134620Y-133350
X142240Y-133350
X107950Y-143510
X115570Y-143510
X109220Y-160020
X116840Y-160020
X073660Y-080010
X081280Y-080010
X081320Y-124460
X083820Y-124460
X081320Y-119380
X083820Y-119380
X091440Y-149860
X099060Y-149860
X147320Y-100330
X147320Y-107950
X121920Y-111760
X129540Y-111760
X081280Y-106680
X088900Y-106680
X137160Y-074930
X137160Y-082550
X085090Y-074930
X085090Y-079930
X088900Y-076200
X091440Y-076200
X093980Y-076200
X099060Y-100330
X099060Y-102870
X099060Y-105410
X099060Y-107950
X099060Y-110490
X099060Y-113030
X099060Y-115570
X099060Y-118110
X099060Y-120650
X099060Y-123190
X099060Y-125730
X099060Y-128270
X099060Y-130810
X099060Y-133350
X106680Y-100330
X106680Y-102870
X106680Y-105410
X106680Y-107950
X106680Y-110490
X106680Y-113030
X106680Y-115570
X106680Y-118110
X106680Y-120650
X106680Y-123190
X106680Y-125730
X106680Y-128270
X106680Y-130810
X106680Y-133350
X134620Y-118110
X142240Y-118110
X147320Y-134620
X147320Y-142240
X134620Y-104140
X142240Y-104140
X133350Y-147320
X140970Y-147320
X121920Y-087630
X129540Y-087630
X086360Y-083820
X093980Y-083820
X114300Y-082550
X121920Y-082550
X072390Y-091440
X072390Y-099060
X074930Y-091440
X074930Y-099060
X077470Y-091440
X077470Y-099060
X080010Y-091440
X080010Y-099060
X077470Y-143510
X077470Y-146050
X077470Y-148590
X077470Y-151130
X085090Y-143510
X085090Y-146050
X085090Y-148590
X085090Y-151130
X142240Y-074930
X142240Y-079930
X077470Y-160020
X077470Y-167640
X080010Y-160020
X080010Y-167640
X082550Y-160020
X082550Y-167640
X085090Y-160020
X085090Y-167640
T3
X073660Y-106680
X076200Y-106680
X118110Y-076200
X120650Y-076200
T4
X123190Y-167640
X125730Y-167640
X106680Y-167640
X109220Y-167640
X111760Y-167640
X063500Y-127000
X063500Y-129540
X153670Y-099060
X153670Y-101600
X153670Y-104140
X153670Y-106680
X127000Y-074930
X129540Y-074930
X132080Y-074930
X063500Y-106680
X063500Y-109220
X063500Y-111760
X063500Y-114300
X063500Y-116840
X153670Y-139700
X153670Y-142240
X153670Y-144780
X153670Y-154940
X153670Y-157480
X148590Y-086360
X153590Y-086360
X099060Y-074930
X101600Y-074930
X104140Y-074930
X106680Y-074930
X109220Y-074930
X153670Y-111760
X153670Y-114300
X153670Y-116840
X153670Y-119380
X153670Y-121920
X153670Y-124460
X153670Y-127000
X153670Y-129540
X153670Y-132080
X138430Y-167640
X140970Y-167640
X149860Y-167640
X152400Y-167640
X154940Y-167640
T6
X127000Y-082550
X129540Y-082550
X132080Y-082550
X074930Y-074930
X077470Y-074930
X080010Y-074930
X111760Y-091440
X111760Y-095940
X118260Y-091440
X118260Y-095940
T7
X062590Y-159730
X065290Y-160930
X067790Y-167730
X071890Y-156530
X072390Y-163830
T8
X090170Y-119380
X090170Y-124280
T5
X060960Y-075440G85X060960Y-076960
G05
X066800Y-073910G85X065280Y-073910
G05
X066800Y-080010G85X065280Y-080010
G05
T0
M30
