G04 #@! TF.GenerationSoftware,KiCad,Pcbnew,(5.0.0)*
G04 #@! TF.CreationDate,2019-01-04T11:12:30-05:00*
G04 #@! TF.ProjectId,Sistema_Adquisicion_Tesis,53697374656D615F4164717569736963,rev?*
G04 #@! TF.SameCoordinates,Original*
G04 #@! TF.FileFunction,Soldermask,Top*
G04 #@! TF.FilePolarity,Negative*
%FSLAX46Y46*%
G04 Gerber Fmt 4.6, Leading zero omitted, Abs format (unit mm)*
G04 Created by KiCad (PCBNEW (5.0.0)) date 01/04/19 11:12:30*
%MOMM*%
%LPD*%
G01*
G04 APERTURE LIST*
%ADD10C,2.000000*%
%ADD11R,2.000000X2.000000*%
%ADD12R,2.400000X2.400000*%
%ADD13C,2.400000*%
%ADD14O,2.000000X2.000000*%
%ADD15R,2.200000X2.200000*%
%ADD16C,2.200000*%
%ADD17C,0.100000*%
%ADD18C,3.400000*%
%ADD19R,5.200000X3.400000*%
%ADD20R,2.100000X2.100000*%
%ADD21O,2.100000X2.100000*%
%ADD22R,2.600000X4.400000*%
%ADD23O,4.400000X2.600000*%
%ADD24O,2.600000X4.400000*%
%ADD25C,1.900000*%
%ADD26R,1.900000X1.900000*%
%ADD27R,2.305000X2.400000*%
%ADD28O,2.305000X2.400000*%
%ADD29C,2.700000*%
G04 APERTURE END LIST*
D10*
G04 #@! TO.C,C6*
X62270000Y-88900000D03*
D11*
X64770000Y-88900000D03*
G04 #@! TD*
D10*
G04 #@! TO.C,C1*
X85090000Y-79930000D03*
X85090000Y-74930000D03*
G04 #@! TD*
D12*
G04 #@! TO.C,C2*
X148590000Y-86360000D03*
D13*
X153590000Y-86360000D03*
G04 #@! TD*
D10*
G04 #@! TO.C,C3*
X81320000Y-119380000D03*
X83820000Y-119380000D03*
G04 #@! TD*
G04 #@! TO.C,C4*
X83820000Y-124460000D03*
X81320000Y-124460000D03*
G04 #@! TD*
G04 #@! TO.C,C5*
X118110000Y-121960000D03*
D11*
X118110000Y-124460000D03*
G04 #@! TD*
G04 #@! TO.C,C7*
X64770000Y-96520000D03*
D10*
X62270000Y-96520000D03*
G04 #@! TD*
D11*
G04 #@! TO.C,C8*
X151130000Y-77470000D03*
D10*
X151130000Y-74970000D03*
G04 #@! TD*
G04 #@! TO.C,C9*
X142240000Y-74930000D03*
X142240000Y-79930000D03*
G04 #@! TD*
D14*
G04 #@! TO.C,D1*
X81280000Y-80010000D03*
D11*
X73660000Y-80010000D03*
G04 #@! TD*
G04 #@! TO.C,D2*
X73660000Y-85090000D03*
D14*
X81280000Y-85090000D03*
G04 #@! TD*
D15*
G04 #@! TO.C,D3*
X120650000Y-76200000D03*
D16*
X118110000Y-76200000D03*
G04 #@! TD*
G04 #@! TO.C,D4*
X76200000Y-106680000D03*
D15*
X73660000Y-106680000D03*
G04 #@! TD*
D17*
G04 #@! TO.C,J1*
G36*
X67873315Y-72214093D02*
X67955827Y-72226333D01*
X68036742Y-72246601D01*
X68115281Y-72274702D01*
X68190687Y-72310367D01*
X68262235Y-72353251D01*
X68329234Y-72402941D01*
X68391041Y-72458959D01*
X68447059Y-72520766D01*
X68496749Y-72587765D01*
X68539633Y-72659313D01*
X68575298Y-72734719D01*
X68603399Y-72813258D01*
X68623667Y-72894173D01*
X68635907Y-72976685D01*
X68640000Y-73060000D01*
X68640000Y-74760000D01*
X68635907Y-74843315D01*
X68623667Y-74925827D01*
X68603399Y-75006742D01*
X68575298Y-75085281D01*
X68539633Y-75160687D01*
X68496749Y-75232235D01*
X68447059Y-75299234D01*
X68391041Y-75361041D01*
X68329234Y-75417059D01*
X68262235Y-75466749D01*
X68190687Y-75509633D01*
X68115281Y-75545298D01*
X68036742Y-75573399D01*
X67955827Y-75593667D01*
X67873315Y-75605907D01*
X67790000Y-75610000D01*
X64290000Y-75610000D01*
X64206685Y-75605907D01*
X64124173Y-75593667D01*
X64043258Y-75573399D01*
X63964719Y-75545298D01*
X63889313Y-75509633D01*
X63817765Y-75466749D01*
X63750766Y-75417059D01*
X63688959Y-75361041D01*
X63632941Y-75299234D01*
X63583251Y-75232235D01*
X63540367Y-75160687D01*
X63504702Y-75085281D01*
X63476601Y-75006742D01*
X63456333Y-74925827D01*
X63444093Y-74843315D01*
X63440000Y-74760000D01*
X63440000Y-73060000D01*
X63444093Y-72976685D01*
X63456333Y-72894173D01*
X63476601Y-72813258D01*
X63504702Y-72734719D01*
X63540367Y-72659313D01*
X63583251Y-72587765D01*
X63632941Y-72520766D01*
X63688959Y-72458959D01*
X63750766Y-72402941D01*
X63817765Y-72353251D01*
X63889313Y-72310367D01*
X63964719Y-72274702D01*
X64043258Y-72246601D01*
X64124173Y-72226333D01*
X64206685Y-72214093D01*
X64290000Y-72210000D01*
X67790000Y-72210000D01*
X67873315Y-72214093D01*
X67873315Y-72214093D01*
G37*
D18*
X66040000Y-73910000D03*
D19*
X66040000Y-80010000D03*
D17*
G36*
X61893315Y-73604093D02*
X61975827Y-73616333D01*
X62056742Y-73636601D01*
X62135281Y-73664702D01*
X62210687Y-73700367D01*
X62282235Y-73743251D01*
X62349234Y-73792941D01*
X62411041Y-73848959D01*
X62467059Y-73910766D01*
X62516749Y-73977765D01*
X62559633Y-74049313D01*
X62595298Y-74124719D01*
X62623399Y-74203258D01*
X62643667Y-74284173D01*
X62655907Y-74366685D01*
X62660000Y-74450000D01*
X62660000Y-77950000D01*
X62655907Y-78033315D01*
X62643667Y-78115827D01*
X62623399Y-78196742D01*
X62595298Y-78275281D01*
X62559633Y-78350687D01*
X62516749Y-78422235D01*
X62467059Y-78489234D01*
X62411041Y-78551041D01*
X62349234Y-78607059D01*
X62282235Y-78656749D01*
X62210687Y-78699633D01*
X62135281Y-78735298D01*
X62056742Y-78763399D01*
X61975827Y-78783667D01*
X61893315Y-78795907D01*
X61810000Y-78800000D01*
X60110000Y-78800000D01*
X60026685Y-78795907D01*
X59944173Y-78783667D01*
X59863258Y-78763399D01*
X59784719Y-78735298D01*
X59709313Y-78699633D01*
X59637765Y-78656749D01*
X59570766Y-78607059D01*
X59508959Y-78551041D01*
X59452941Y-78489234D01*
X59403251Y-78422235D01*
X59360367Y-78350687D01*
X59324702Y-78275281D01*
X59296601Y-78196742D01*
X59276333Y-78115827D01*
X59264093Y-78033315D01*
X59260000Y-77950000D01*
X59260000Y-74450000D01*
X59264093Y-74366685D01*
X59276333Y-74284173D01*
X59296601Y-74203258D01*
X59324702Y-74124719D01*
X59360367Y-74049313D01*
X59403251Y-73977765D01*
X59452941Y-73910766D01*
X59508959Y-73848959D01*
X59570766Y-73792941D01*
X59637765Y-73743251D01*
X59709313Y-73700367D01*
X59784719Y-73664702D01*
X59863258Y-73636601D01*
X59944173Y-73616333D01*
X60026685Y-73604093D01*
X60110000Y-73600000D01*
X61810000Y-73600000D01*
X61893315Y-73604093D01*
X61893315Y-73604093D01*
G37*
D18*
X60960000Y-76200000D03*
G04 #@! TD*
D20*
G04 #@! TO.C,J2*
X153670000Y-99060000D03*
D21*
X153670000Y-101600000D03*
X153670000Y-104140000D03*
X153670000Y-106680000D03*
G04 #@! TD*
D22*
G04 #@! TO.C,J5*
X72390000Y-163830000D03*
D23*
X71890000Y-156530000D03*
D24*
X65290000Y-160930000D03*
X62590000Y-159730000D03*
D23*
X67790000Y-167730000D03*
G04 #@! TD*
D20*
G04 #@! TO.C,J7*
X153670000Y-154940000D03*
D21*
X153670000Y-157480000D03*
G04 #@! TD*
D20*
G04 #@! TO.C,J8*
X63500000Y-106680000D03*
D21*
X63500000Y-109220000D03*
X63500000Y-111760000D03*
X63500000Y-114300000D03*
X63500000Y-116840000D03*
G04 #@! TD*
D20*
G04 #@! TO.C,J9*
X127000000Y-74930000D03*
D21*
X129540000Y-74930000D03*
X132080000Y-74930000D03*
G04 #@! TD*
D20*
G04 #@! TO.C,J10*
X99060000Y-74930000D03*
D21*
X101600000Y-74930000D03*
X104140000Y-74930000D03*
X106680000Y-74930000D03*
X109220000Y-74930000D03*
G04 #@! TD*
G04 #@! TO.C,J11*
X63500000Y-129540000D03*
D20*
X63500000Y-127000000D03*
G04 #@! TD*
D25*
G04 #@! TO.C,Q1*
X91440000Y-76200000D03*
X88900000Y-76200000D03*
D26*
X93980000Y-76200000D03*
G04 #@! TD*
D13*
G04 #@! TO.C,SW1*
X111760000Y-95940000D03*
X111760000Y-91440000D03*
X118260000Y-95940000D03*
X118260000Y-91440000D03*
G04 #@! TD*
D11*
G04 #@! TO.C,U1*
X99060000Y-100330000D03*
D14*
X106680000Y-133350000D03*
X99060000Y-102870000D03*
X106680000Y-130810000D03*
X99060000Y-105410000D03*
X106680000Y-128270000D03*
X99060000Y-107950000D03*
X106680000Y-125730000D03*
X99060000Y-110490000D03*
X106680000Y-123190000D03*
X99060000Y-113030000D03*
X106680000Y-120650000D03*
X99060000Y-115570000D03*
X106680000Y-118110000D03*
X99060000Y-118110000D03*
X106680000Y-115570000D03*
X99060000Y-120650000D03*
X106680000Y-113030000D03*
X99060000Y-123190000D03*
X106680000Y-110490000D03*
X99060000Y-125730000D03*
X106680000Y-107950000D03*
X99060000Y-128270000D03*
X106680000Y-105410000D03*
X99060000Y-130810000D03*
X106680000Y-102870000D03*
X99060000Y-133350000D03*
X106680000Y-100330000D03*
G04 #@! TD*
D11*
G04 #@! TO.C,U2*
X77470000Y-143510000D03*
D14*
X85090000Y-151130000D03*
X77470000Y-146050000D03*
X85090000Y-148590000D03*
X77470000Y-148590000D03*
X85090000Y-146050000D03*
X77470000Y-151130000D03*
X85090000Y-143510000D03*
G04 #@! TD*
D27*
G04 #@! TO.C,U3*
X74930000Y-74930000D03*
D28*
X77470000Y-74930000D03*
X80010000Y-74930000D03*
G04 #@! TD*
D14*
G04 #@! TO.C,U4*
X116840000Y-147320000D03*
X124460000Y-154940000D03*
X119380000Y-147320000D03*
X121920000Y-154940000D03*
X121920000Y-147320000D03*
X119380000Y-154940000D03*
X124460000Y-147320000D03*
D11*
X116840000Y-154940000D03*
G04 #@! TD*
D28*
G04 #@! TO.C,U5*
X132080000Y-82550000D03*
X129540000Y-82550000D03*
D27*
X127000000Y-82550000D03*
G04 #@! TD*
D11*
G04 #@! TO.C,U6*
X146050000Y-153670000D03*
D14*
X138430000Y-161290000D03*
X143510000Y-153670000D03*
X140970000Y-161290000D03*
X140970000Y-153670000D03*
X143510000Y-161290000D03*
X138430000Y-153670000D03*
X146050000Y-161290000D03*
G04 #@! TD*
G04 #@! TO.C,U7*
X85090000Y-167640000D03*
X77470000Y-160020000D03*
X82550000Y-167640000D03*
X80010000Y-160020000D03*
X80010000Y-167640000D03*
X82550000Y-160020000D03*
X77470000Y-167640000D03*
D11*
X85090000Y-160020000D03*
G04 #@! TD*
G04 #@! TO.C,U8*
X99060000Y-160020000D03*
D14*
X91440000Y-167640000D03*
X96520000Y-160020000D03*
X93980000Y-167640000D03*
X93980000Y-160020000D03*
X96520000Y-167640000D03*
X91440000Y-160020000D03*
X99060000Y-167640000D03*
G04 #@! TD*
G04 #@! TO.C,U9*
X80010000Y-99060000D03*
X72390000Y-91440000D03*
X77470000Y-99060000D03*
X74930000Y-91440000D03*
X74930000Y-99060000D03*
X77470000Y-91440000D03*
X72390000Y-99060000D03*
D11*
X80010000Y-91440000D03*
G04 #@! TD*
D29*
G04 #@! TO.C,Y1*
X90170000Y-119380000D03*
X90170000Y-124280000D03*
G04 #@! TD*
D21*
G04 #@! TO.C,J3*
X106680000Y-167640000D03*
X109220000Y-167640000D03*
D20*
X111760000Y-167640000D03*
G04 #@! TD*
G04 #@! TO.C,J4*
X149860000Y-167640000D03*
D21*
X152400000Y-167640000D03*
X154940000Y-167640000D03*
G04 #@! TD*
D20*
G04 #@! TO.C,J12*
X153670000Y-132080000D03*
D21*
X153670000Y-129540000D03*
X153670000Y-127000000D03*
X153670000Y-124460000D03*
X153670000Y-121920000D03*
X153670000Y-119380000D03*
X153670000Y-116840000D03*
X153670000Y-114300000D03*
X153670000Y-111760000D03*
G04 #@! TD*
G04 #@! TO.C,J13*
X125730000Y-167640000D03*
D20*
X123190000Y-167640000D03*
G04 #@! TD*
G04 #@! TO.C,J14*
X138430000Y-167640000D03*
D21*
X140970000Y-167640000D03*
G04 #@! TD*
D10*
G04 #@! TO.C,R1*
X62230000Y-142240000D03*
D14*
X69850000Y-142240000D03*
G04 #@! TD*
G04 #@! TO.C,R2*
X69850000Y-148590000D03*
D10*
X62230000Y-148590000D03*
G04 #@! TD*
G04 #@! TO.C,R3*
X99060000Y-139700000D03*
D14*
X91440000Y-139700000D03*
G04 #@! TD*
G04 #@! TO.C,R4*
X91440000Y-144780000D03*
D10*
X99060000Y-144780000D03*
G04 #@! TD*
G04 #@! TO.C,R5*
X77470000Y-138430000D03*
D14*
X85090000Y-138430000D03*
G04 #@! TD*
D10*
G04 #@! TO.C,R6*
X93980000Y-83820000D03*
D14*
X86360000Y-83820000D03*
G04 #@! TD*
G04 #@! TO.C,R7*
X86360000Y-88900000D03*
D10*
X93980000Y-88900000D03*
G04 #@! TD*
D14*
G04 #@! TO.C,R8*
X137160000Y-82550000D03*
D10*
X137160000Y-74930000D03*
G04 #@! TD*
G04 #@! TO.C,R9*
X104140000Y-78740000D03*
D14*
X111760000Y-78740000D03*
G04 #@! TD*
G04 #@! TO.C,R10*
X116840000Y-160020000D03*
D10*
X109220000Y-160020000D03*
G04 #@! TD*
G04 #@! TO.C,R11*
X123190000Y-161290000D03*
D14*
X130810000Y-161290000D03*
G04 #@! TD*
D10*
G04 #@! TO.C,R12*
X120650000Y-143510000D03*
D14*
X128270000Y-143510000D03*
G04 #@! TD*
G04 #@! TO.C,R13*
X111760000Y-147320000D03*
D10*
X111760000Y-154940000D03*
G04 #@! TD*
D14*
G04 #@! TO.C,R14*
X140970000Y-147320000D03*
D10*
X133350000Y-147320000D03*
G04 #@! TD*
D14*
G04 #@! TO.C,R15*
X140970000Y-142240000D03*
D10*
X133350000Y-142240000D03*
G04 #@! TD*
G04 #@! TO.C,R16*
X107950000Y-143510000D03*
D14*
X115570000Y-143510000D03*
G04 #@! TD*
G04 #@! TO.C,R17*
X121920000Y-111760000D03*
D10*
X129540000Y-111760000D03*
G04 #@! TD*
D14*
G04 #@! TO.C,R18*
X129540000Y-106680000D03*
D10*
X121920000Y-106680000D03*
G04 #@! TD*
G04 #@! TO.C,R19*
X129540000Y-100330000D03*
D14*
X121920000Y-100330000D03*
G04 #@! TD*
D10*
G04 #@! TO.C,R20*
X128270000Y-96520000D03*
D14*
X135890000Y-96520000D03*
G04 #@! TD*
G04 #@! TO.C,R21*
X139700000Y-96520000D03*
D10*
X147320000Y-96520000D03*
G04 #@! TD*
D14*
G04 #@! TO.C,R22*
X142240000Y-104140000D03*
D10*
X134620000Y-104140000D03*
G04 #@! TD*
G04 #@! TO.C,R23*
X147320000Y-107950000D03*
D14*
X147320000Y-100330000D03*
G04 #@! TD*
D10*
G04 #@! TO.C,R24*
X134620000Y-111760000D03*
D14*
X142240000Y-111760000D03*
G04 #@! TD*
G04 #@! TO.C,R25*
X147320000Y-111760000D03*
D10*
X147320000Y-119380000D03*
G04 #@! TD*
D14*
G04 #@! TO.C,R26*
X142240000Y-118110000D03*
D10*
X134620000Y-118110000D03*
G04 #@! TD*
G04 #@! TO.C,R27*
X147320000Y-130810000D03*
D14*
X147320000Y-123190000D03*
G04 #@! TD*
G04 #@! TO.C,R28*
X99060000Y-154940000D03*
D10*
X91440000Y-154940000D03*
G04 #@! TD*
G04 #@! TO.C,R29*
X134620000Y-125730000D03*
D14*
X142240000Y-125730000D03*
G04 #@! TD*
D10*
G04 #@! TO.C,R30*
X147320000Y-142240000D03*
D14*
X147320000Y-134620000D03*
G04 #@! TD*
G04 #@! TO.C,R31*
X142240000Y-133350000D03*
D10*
X134620000Y-133350000D03*
G04 #@! TD*
G04 #@! TO.C,R32*
X99060000Y-149860000D03*
D14*
X91440000Y-149860000D03*
G04 #@! TD*
D10*
G04 #@! TO.C,R33*
X81280000Y-106680000D03*
D14*
X88900000Y-106680000D03*
G04 #@! TD*
D10*
G04 #@! TO.C,R34*
X114300000Y-82550000D03*
D14*
X121920000Y-82550000D03*
G04 #@! TD*
G04 #@! TO.C,R35*
X129540000Y-87630000D03*
D10*
X121920000Y-87630000D03*
G04 #@! TD*
D14*
G04 #@! TO.C,R36*
X99060000Y-88900000D03*
D10*
X99060000Y-81280000D03*
G04 #@! TD*
D20*
G04 #@! TO.C,J6*
X153670000Y-139700000D03*
D21*
X153670000Y-142240000D03*
X153670000Y-144780000D03*
G04 #@! TD*
M02*
